<?xml version="1.0" encoding="UTF-8" standalone="no"?>
<!DOCTYPE svg PUBLIC "-//W3C//DTD SVG 1.1//EN"
 "http://www.w3.org/Graphics/SVG/1.1/DTD/svg11.dtd">
<!-- Generated by graphviz version 2.43.0 (0)
 -->
<!-- Title: audit Pages: 1 -->
<svg width="663pt" height="917pt"
 viewBox="0.00 0.00 663.00 917.00" xmlns="http://www.w3.org/2000/svg" xmlns:xlink="http://www.w3.org/1999/xlink">
<g id="graph0" class="graph" transform="scale(1 1) rotate(0) translate(4 913)">
<title>audit</title>
<text text-anchor="middle" x="327.5" y="-893" font-family="Helvetica,sans-Serif" font-size="15.00" fill="#1a1a2e">Delivery Semantics &amp; Audit Ledger — Idempotent Commit</text>
<!-- a1 -->
<g id="node1" class="node">
<title>a1</title>
<path fill="#e0e7ff" stroke="#4f46e5" stroke-width="1.4" d="M549,-884C549,-884 367,-884 367,-884 361,-884 355,-878 355,-872 355,-872 355,-830 355,-830 355,-824 361,-818 367,-818 367,-818 549,-818 549,-818 555,-818 561,-824 561,-830 561,-830 561,-872 561,-872 561,-878 555,-884 549,-884"/>
<text text-anchor="middle" x="458" y="-866.2" font-family="Helvetica,sans-Serif" font-size="11.00" fill="#1a1a2e">1 · LEASE</text>
<text text-anchor="middle" x="458" y="-854.2" font-family="Helvetica,sans-Serif" font-size="11.00" fill="#1a1a2e">agent leases task</text>
<text text-anchor="middle" x="458" y="-842.2" font-family="Helvetica,sans-Serif" font-size="11.00" fill="#1a1a2e">control plane records:</text>
<text text-anchor="middle" x="458" y="-830.2" font-family="Helvetica,sans-Serif" font-size="11.00" fill="#1a1a2e">agent SVID · TTL · policy version</text>
</g>
<!-- a2 -->
<g id="node2" class="node">
<title>a2</title>
<path fill="#fee2e2" stroke="#dc2626" stroke-width="1.4" d="M542,-768C542,-768 374,-768 374,-768 368,-768 362,-762 362,-756 362,-756 362,-702 362,-702 362,-696 368,-690 374,-690 374,-690 542,-690 542,-690 548,-690 554,-696 554,-702 554,-702 554,-756 554,-756 554,-762 548,-768 542,-768"/>
<text text-anchor="middle" x="458" y="-750.2" font-family="Helvetica,sans-Serif" font-size="11.00" fill="#1a1a2e">2 · AUTHORIZE</text>
<text text-anchor="middle" x="458" y="-738.2" font-family="Helvetica,sans-Serif" font-size="11.00" fill="#1a1a2e">policy engine evaluates</text>
<text text-anchor="middle" x="458" y="-726.2" font-family="Helvetica,sans-Serif" font-size="11.00" fill="#1a1a2e">object allowlist · masking ·</text>
<text text-anchor="middle" x="458" y="-714.2" font-family="Helvetica,sans-Serif" font-size="11.00" fill="#1a1a2e">row filter · byte budget</text>
<text text-anchor="middle" x="458" y="-702.2" font-family="Helvetica,sans-Serif" font-size="11.00" fill="#1a1a2e">→ DENY is also an audit event</text>
</g>
<!-- a1&#45;&gt;a2 -->
<g id="edge1" class="edge">
<title>a1&#45;&gt;a2</title>
<path fill="none" stroke="#9ca3af" stroke-width="1.2" d="M458,-817.84C458,-804.96 458,-789.87 458,-775.87"/>
<polygon fill="#9ca3af" stroke="#9ca3af" stroke-width="1.2" points="460.63,-775.72 458,-768.22 455.38,-775.72 460.63,-775.72"/>
</g>
<!-- a3 -->
<g id="node3" class="node">
<title>a3</title>
<path fill="#d1fae5" stroke="#059669" stroke-width="1.4" d="M463,-640C463,-640 289,-640 289,-640 283,-640 277,-634 277,-628 277,-628 277,-598 277,-598 277,-592 283,-586 289,-586 289,-586 463,-586 463,-586 469,-586 475,-592 475,-598 475,-598 475,-628 475,-628 475,-634 469,-640 463,-640"/>
<text text-anchor="middle" x="376" y="-622.2" font-family="Helvetica,sans-Serif" font-size="11.00" fill="#1a1a2e">3 · READ batch N</text>
<text text-anchor="middle" x="376" y="-610.2" font-family="Helvetica,sans-Serif" font-size="11.00" fill="#1a1a2e">into encrypted local WAL</text>
<text text-anchor="middle" x="376" y="-598.2" font-family="Helvetica,sans-Serif" font-size="11.00" fill="#1a1a2e">row count + hash accumulated</text>
</g>
<!-- a2&#45;&gt;a3 -->
<g id="edge2" class="edge">
<title>a2&#45;&gt;a3</title>
<path fill="none" stroke="#9ca3af" stroke-width="1.2" d="M430.47,-689.72C420.39,-675.71 409.09,-660.01 399.41,-646.55"/>
<polygon fill="#9ca3af" stroke="#9ca3af" stroke-width="1.2" points="401.31,-644.69 394.8,-640.14 397.05,-647.76 401.31,-644.69"/>
</g>
<!-- ledger -->
<g id="node8" class="node">
<title>ledger</title>
<path fill="#ede9fe" stroke="#7c3aed" stroke-width="2" d="M643,-268C643,-268 359,-268 359,-268 353,-268 347,-262 347,-256 347,-256 347,-152 347,-152 347,-146 353,-140 359,-140 359,-140 643,-140 643,-140 649,-140 655,-146 655,-152 655,-152 655,-256 655,-256 655,-262 649,-268 643,-268"/>
<text text-anchor="middle" x="501" y="-250.2" font-family="Helvetica,sans-Serif" font-size="11.00" fill="#1a1a2e">AUDIT LEDGER (append&#45;only)</text>
<text text-anchor="middle" x="501" y="-225.2" font-family="Helvetica,sans-Serif" font-size="11.00" fill="#1a1a2e">record = {run_id, batch_id, actor_svid,</text>
<text text-anchor="middle" x="501" y="-213.2" font-family="Helvetica,sans-Serif" font-size="11.00" fill="#1a1a2e"> source_id, object, strategy, predicate_hash,</text>
<text text-anchor="middle" x="501" y="-201.2" font-family="Helvetica,sans-Serif" font-size="11.00" fill="#1a1a2e"> position_from, position_to, row_count, byte_count,</text>
<text text-anchor="middle" x="501" y="-189.2" font-family="Helvetica,sans-Serif" font-size="11.00" fill="#1a1a2e"> schema_ver, policy_ver, outcome, ts}</text>
<text text-anchor="middle" x="501" y="-164.2" font-family="Helvetica,sans-Serif" font-size="11.00" fill="#1a1a2e">prev_hash → hash chain → tamper&#45;evident</text>
<text text-anchor="middle" x="501" y="-152.2" font-family="Helvetica,sans-Serif" font-size="11.00" fill="#1a1a2e">WORM storage · object lock · retention hold</text>
</g>
<!-- a2&#45;&gt;ledger -->
<g id="edge8" class="edge">
<title>a2&#45;&gt;ledger</title>
<path fill="none" stroke="#7c3aed" stroke-width="1.2" stroke-dasharray="5,2" d="M474.38,-689.57C480.34,-674.36 486.67,-656.58 491,-640 523.64,-515.14 517.17,-363.2 509.25,-275.93"/>
<polygon fill="#7c3aed" stroke="#7c3aed" stroke-width="1.2" points="511.84,-275.43 508.53,-268.21 506.62,-275.92 511.84,-275.43"/>
</g>
<!-- a4 -->
<g id="node4" class="node">
<title>a4</title>
<path fill="#fce7f3" stroke="#be185d" stroke-width="1.4" d="M216,-524C216,-524 12,-524 12,-524 6,-524 0,-518 0,-512 0,-512 0,-470 0,-470 0,-464 6,-458 12,-458 12,-458 216,-458 216,-458 222,-458 228,-464 228,-470 228,-470 228,-512 228,-512 228,-518 222,-524 216,-524"/>
<text text-anchor="middle" x="114" y="-506.2" font-family="Helvetica,sans-Serif" font-size="11.00" fill="#1a1a2e">4 · WRITE to sink</text>
<text text-anchor="middle" x="114" y="-494.2" font-family="Helvetica,sans-Serif" font-size="11.00" fill="#1a1a2e">deterministic path:</text>
<text text-anchor="middle" x="114" y="-482.2" font-family="Helvetica,sans-Serif" font-size="11.00" fill="#1a1a2e">{table}/{run_id}/{batch_id}.parquet</text>
<text text-anchor="middle" x="114" y="-470.2" font-family="Helvetica,sans-Serif" font-size="11.00" fill="#1a1a2e">→ replay overwrites byte&#45;identically</text>
</g>
<!-- a3&#45;&gt;a4 -->
<g id="edge3" class="edge">
<title>a3&#45;&gt;a4</title>
<path fill="none" stroke="#9ca3af" stroke-width="1.2" d="M319.15,-585.96C281.73,-568.82 232.28,-546.17 191.31,-527.41"/>
<polygon fill="#9ca3af" stroke="#9ca3af" stroke-width="1.2" points="192.2,-524.93 184.28,-524.19 190.01,-529.7 192.2,-524.93"/>
</g>
<!-- crash -->
<g id="node7" class="node">
<title>crash</title>
<polygon fill="#fff1f2" stroke="#dc2626" stroke-width="1.4" points="485.5,-536 260.5,-536 260.5,-446 491.5,-446 491.5,-530 485.5,-536"/>
<polyline fill="none" stroke="#dc2626" stroke-width="1.4" points="485.5,-536 485.5,-530 "/>
<polyline fill="none" stroke="#dc2626" stroke-width="1.4" points="491.5,-530 485.5,-530 "/>
<text text-anchor="middle" x="376" y="-518.2" font-family="Helvetica,sans-Serif" font-size="11.00" fill="#1a1a2e">CRASH ANYWHERE BEFORE 5</text>
<text text-anchor="middle" x="376" y="-506.2" font-family="Helvetica,sans-Serif" font-size="11.00" fill="#1a1a2e">→ lease expires</text>
<text text-anchor="middle" x="376" y="-494.2" font-family="Helvetica,sans-Serif" font-size="11.00" fill="#1a1a2e">→ another agent replays from</text>
<text text-anchor="middle" x="376" y="-482.2" font-family="Helvetica,sans-Serif" font-size="11.00" fill="#1a1a2e"> &#160;&#160;last committed checkpoint</text>
<text text-anchor="middle" x="376" y="-470.2" font-family="Helvetica,sans-Serif" font-size="11.00" fill="#1a1a2e">→ idempotent: same path,</text>
<text text-anchor="middle" x="376" y="-458.2" font-family="Helvetica,sans-Serif" font-size="11.00" fill="#1a1a2e"> &#160;&#160;same batch_id, MERGE on batch_id</text>
</g>
<!-- a3&#45;&gt;crash -->
<g id="edge6" class="edge">
<title>a3&#45;&gt;crash</title>
<path fill="none" stroke="#dc2626" stroke-width="1.2" stroke-dasharray="5,2" d="M376,-585.96C376,-573.63 376,-558.46 376,-543.92"/>
<polygon fill="#dc2626" stroke="#dc2626" stroke-width="1.2" points="378.63,-543.9 376,-536.4 373.38,-543.9 378.63,-543.9"/>
</g>
<!-- a5 -->
<g id="node5" class="node">
<title>a5</title>
<path fill="#e0e7ff" stroke="#4f46e5" stroke-width="2" d="M252,-396C252,-396 56,-396 56,-396 50,-396 44,-390 44,-384 44,-384 44,-330 44,-330 44,-324 50,-318 56,-318 56,-318 252,-318 252,-318 258,-318 264,-324 264,-330 264,-330 264,-384 264,-384 264,-390 258,-396 252,-396"/>
<text text-anchor="middle" x="154" y="-378.2" font-family="Helvetica,sans-Serif" font-size="11.00" fill="#1a1a2e">5 · COMMIT (atomic, control plane)</text>
<text text-anchor="middle" x="154" y="-366.2" font-family="Helvetica,sans-Serif" font-size="11.00" fill="#1a1a2e"> advance watermark</text>
<text text-anchor="middle" x="154" y="-354.2" font-family="Helvetica,sans-Serif" font-size="11.00" fill="#1a1a2e">+ append audit record</text>
<text text-anchor="middle" x="154" y="-342.2" font-family="Helvetica,sans-Serif" font-size="11.00" fill="#1a1a2e">+ mark batch durable</text>
<text text-anchor="middle" x="154" y="-330.2" font-family="Helvetica,sans-Serif" font-size="11.00" fill="#1a1a2e">ALL OR NOTHING</text>
</g>
<!-- a4&#45;&gt;a5 -->
<g id="edge4" class="edge">
<title>a4&#45;&gt;a5</title>
<path fill="none" stroke="#9ca3af" stroke-width="1.2" d="M123.79,-457.71C128.72,-441.41 134.8,-421.37 140.2,-403.54"/>
<polygon fill="#9ca3af" stroke="#9ca3af" stroke-width="1.2" points="142.81,-403.99 142.47,-396.05 137.78,-402.47 142.81,-403.99"/>
</g>
<!-- a6 -->
<g id="node6" class="node">
<title>a6</title>
<path fill="#f3f4f6" stroke="#9ca3af" stroke-width="1.4" d="M223,-222C223,-222 85,-222 85,-222 79,-222 73,-216 73,-210 73,-210 73,-198 73,-198 73,-192 79,-186 85,-186 85,-186 223,-186 223,-186 229,-186 235,-192 235,-198 235,-198 235,-210 235,-210 235,-216 229,-222 223,-222"/>
<text text-anchor="middle" x="154" y="-201.2" font-family="Helvetica,sans-Serif" font-size="11.00" fill="#1a1a2e">6 · SHRED WAL segment</text>
</g>
<!-- a5&#45;&gt;a6 -->
<g id="edge5" class="edge">
<title>a5&#45;&gt;a6</title>
<path fill="none" stroke="#9ca3af" stroke-width="1.2" d="M154,-317.9C154,-290.27 154,-253.7 154,-229.77"/>
<polygon fill="#9ca3af" stroke="#9ca3af" stroke-width="1.2" points="156.63,-229.67 154,-222.17 151.38,-229.67 156.63,-229.67"/>
</g>
<!-- a5&#45;&gt;ledger -->
<g id="edge7" class="edge">
<title>a5&#45;&gt;ledger</title>
<path fill="none" stroke="#7c3aed" stroke-width="2" stroke-dasharray="5,2" d="M241.56,-317.9C274.13,-303.73 312.09,-287.21 348.77,-271.24"/>
<polygon fill="#7c3aed" stroke="#7c3aed" stroke-width="2" points="350.26,-273.46 356.09,-268.06 348.16,-268.65 350.26,-273.46"/>
</g>
<!-- answers -->
<g id="node9" class="node">
<title>answers</title>
<polygon fill="#f3f4f6" stroke="#9ca3af" stroke-width="1.4" points="634.5,-90 361.5,-90 361.5,0 640.5,0 640.5,-84 634.5,-90"/>
<polyline fill="none" stroke="#9ca3af" stroke-width="1.4" points="634.5,-90 634.5,-84 "/>
<polyline fill="none" stroke="#9ca3af" stroke-width="1.4" points="640.5,-84 634.5,-84 "/>
<text text-anchor="middle" x="501" y="-72.2" font-family="Helvetica,sans-Serif" font-size="11.00" fill="#1a1a2e">The ledger answers, per row:</text>
<text text-anchor="middle" x="501" y="-60.2" font-family="Helvetica,sans-Serif" font-size="11.00" fill="#1a1a2e">• WHO pulled it (agent SVID + human owner)</text>
<text text-anchor="middle" x="501" y="-48.2" font-family="Helvetica,sans-Serif" font-size="11.00" fill="#1a1a2e">• WHEN, from WHERE, under WHICH policy</text>
<text text-anchor="middle" x="501" y="-36.2" font-family="Helvetica,sans-Serif" font-size="11.00" fill="#1a1a2e">• WHICH predicate selected it</text>
<text text-anchor="middle" x="501" y="-24.2" font-family="Helvetica,sans-Serif" font-size="11.00" fill="#1a1a2e">• WHERE it landed</text>
<text text-anchor="middle" x="501" y="-12.2" font-family="Helvetica,sans-Serif" font-size="11.00" fill="#1a1a2e">• WAS it masked, and by which rule</text>
</g>
<!-- ledger&#45;&gt;answers -->
<g id="edge9" class="edge">
<title>ledger&#45;&gt;answers</title>
<path fill="none" stroke="#6b7280" stroke-width="1.2" stroke-dasharray="5,2" d="M501,-139.59C501,-125.79 501,-111.34 501,-98.04"/>
<polygon fill="#6b7280" stroke="#6b7280" stroke-width="1.2" points="503.63,-97.86 501,-90.36 498.38,-97.86 503.63,-97.86"/>
</g>
</g>
</svg>
